<svg xmlns="http://www.w3.org/2000/svg" data-name="Capa 2" viewBox="0 0 100 125" x="0px" y="0px"><title>Artboard 8</title><path d="M91.21,6.5H36.26A2.29,2.29,0,0,0,34,8.79V66.28a16,16,0,1,0,4.58,11.2V24.82H88.92v14A16,16,0,1,0,93.5,50V8.79A2.29,2.29,0,0,0,91.21,6.5ZM22.53,88.92A11.45,11.45,0,1,1,34,77.47,11.46,11.46,0,0,1,22.53,88.92ZM77.47,61.45A11.45,11.45,0,1,1,88.92,50,11.46,11.46,0,0,1,77.47,61.45ZM38.55,20.24V11.08H88.92v9.16Z"/><text x="0" y="115" fill="#000000" font-size="5px" font-weight="bold" font-family="'Helvetica Neue', Helvetica, Arial-Unicode, Arial, Sans-serif">Created by Aline Escobar</text><text x="0" y="120" fill="#000000" font-size="5px" font-weight="bold" font-family="'Helvetica Neue', Helvetica, Arial-Unicode, Arial, Sans-serif">from the Noun Project</text></svg>