<svg version="1.1" viewBox="0 0 100 125" x="0px" xmlns="http://www.w3.org/2000/svg" xmlns:cc="http://creativecommons.org/ns#" xmlns:dc="http://purl.org/dc/elements/1.1/" xmlns:inkscape="http://www.inkscape.org/namespaces/inkscape" xmlns:rdf="http://www.w3.org/1999/02/22-rdf-syntax-ns#" xmlns:sodipodi="http://sodipodi.sourceforge.net/DTD/sodipodi-0.dtd" xmlns:svg="http://www.w3.org/2000/svg" y="0px">
    <g transform="translate(0,-952.36218)">
        <path d="m 93.994868,1002.1435 c -0.0027,-0.1462 -0.01319,-0.2923 -0.0314,-0.4374 -0.182181,-1.0955 -0.827276,-2.10932 -1.74978,-2.75016 L 38.810567,961.17467 c -1.268209,-0.92098 -3.072314,-1.0682 -4.477823,-0.3654 -1.405508,0.7028 -2.345971,2.2224 -2.334247,3.77168 l 10e-6,75.56265 c -0.01175,1.5493 0.928727,3.0689 2.334269,3.7718 1.405543,0.7028 3.209693,0.5555 4.477901,-0.3655 l 53.403081,-37.7815 c 1.158429,-0.8142 1.85276,-2.2274 1.78099,-3.6249 z M 25.998947,966.67473 c 1.1e-4,-2.72152 -1.13971,-3.61923 -1.99987,-4.46883 -0.42735,-0.42749 -0.87617,-0.79428 -1.437429,-1.12505 -0.55885,-0.33418 -1.18477,-0.71867 -2.56231,-0.71867 l -7.9995,0 c -1.37721,1e-4 -1.93894,0.38769 -2.4998702,0.71877 -0.56101,0.33087 -1.00717,0.70016 -1.43734,1.12495 -0.85971,0.8498 -2.0624,1.74771 -2.06245,4.46883 l 3e-5,71.37507 c -10e-5,2.7212 1.20241,3.6191 2.06234,4.4689 0.42749,0.4275 0.87615,0.7942 1.43741,1.1249 0.5590402,0.3344 1.1227702,0.7187 2.4998802,0.7186 l 7.9996,-2e-4 c 1.37752,10e-5 2.00151,-0.3876 2.56229,-0.7186 0.561059,-0.3309 1.007499,-0.7002 1.437399,-1.125 0.85986,-0.85 1.99993,-1.7475 1.99993,-4.4688 l -9e-5,-71.37487 z" display="inline" fill="#5eff89" fill-opacity="1" marker="none" overflow="visible" stroke="none" style="text-indent:0;text-transform:none;direction:ltr;block-progression:tb;baseline-shift:baseline;color:#000000;enable-background:accumulate;" visibility="visible"/>
    </g>
    <text fill="#000000" font-family="'Helvetica Neue', Helvetica, Arial-Unicode, Arial, Sans-serif" font-size="5px" font-weight="bold" x="0" y="115">Created by Nanda Ririz</text>
    <text fill="#000000" font-family="'Helvetica Neue', Helvetica, Arial-Unicode, Arial, Sans-serif" font-size="5px" font-weight="bold" x="0" y="120">from the Noun Project</text>
</svg>