<svg version="1.1" viewBox="-247 330.9 100 5" xml:space="preserve" xmlns="http://www.w3.org/2000/svg" xmlns:xlink="http://www.w3.org/1999/xlink" >
    <path stroke="#5eff89" stroke-width=".5" d="M-228.5,423.2c-0.5-0.8-0.7-1.6-0.7-2.3l0,0c0-0.6,0.2-1.5,0.7-2.2s1.5-1.4,2.9-1.4l0,0v-1.2c0,0,0,0-0.1,0  c-1.8,0-3.2,0.8-3.9,1.9c-0.7,1-0.9,2.1-0.9,2.9l0,0c0,0.8,0.2,1.9,0.9,2.9c0.7,1,2.1,1.9,3.9,1.9l0,0l0.1-1.2c-0.1,0-0.1,0-0.1,0  C-227,424.5-228,423.9-228.5,423.2z M-173.1,401.8h-3.6c-0.1,0-0.2,0-0.3,0.1c-0.1,0.1-0.1,0.2-0.1,0.3v6.1c0,0.1,0,0.2,0.1,0.3  s0.2,0.1,0.3,0.1h3.6c0.1,0,0.2,0,0.3-0.1c0.1-0.1,0.1-0.2,0.1-0.3v-6.1c0-0.1,0-0.2-0.1-0.3C-172.9,401.8-173,401.8-173.1,401.8z   M-173.5,407.9h-2.8v-5.3h2.8V407.9z M-174.5,433.5L-174.5,433.5L-174.5,433.5c-1.8,0-3.3,1.5-3.3,3.3c0,1.8,1.5,3.3,3.3,3.3  s3.3-1.5,3.3-3.3C-171.2,435-172.7,433.5-174.5,433.5z M-174.5,439.2c-1.4,0-2.5-1.1-2.5-2.5s1.1-2.5,2.5-2.5l0,0  c1.4,0,2.5,1.1,2.5,2.5S-173.1,439.2-174.5,439.2z M-151.6,417.4c-0.1-0.1-0.2-0.1-0.3-0.1l-1.3,0.2c0.1-0.1,0.1-0.2,0.1-0.3v-6.3  c0-0.1-0.1-0.2-0.1-0.3c-0.1-0.1-0.2-0.1-0.3-0.1l-4.5,0.8v-1.7v-0.1l-4.6-21.7c-0.1-0.3-0.3-0.5-0.6-0.5c-0.1,0-8.3-0.1-11.5,2.9  c-2.8,2.8-7.1,7.1-10.8,11.9c-1.8,2.3-3.8,3.7-5.4,4.5c-0.8,0.4-1.4,0.6-1.9,0.8c-0.5,0.1-0.7,0.2-0.7,0.2l-29.9,5.4  c-5.8,0.5-10.5,1.9-13.8,3.4c-1.6,0.7-2.9,1.5-3.8,2.2c-0.9,0.8-1.5,1.4-1.5,2.3c0,0.9,0.6,1.5,1.5,2.3c2.7,2.2,8.9,4.8,17.7,5.6  l29.9,5.4c0,0,1,0.2,2.6,1c1.5,0.8,3.6,2.1,5.4,4.5c3.8,4.9,8.1,9.2,10.8,11.9c3,2.9,10.4,2.9,11.4,2.9h0.1c0.1,0,0.2,0,0.3-0.1  c0.2-0.1,0.3-0.2,0.3-0.4l4.5-21.6v-0.1v-1.7l4.3,0.7c0,0,0,0,0.1,0c0.1,0,0.2,0,0.3-0.1c0.1-0.1,0.1-0.2,0.1-0.3v-6.3  c0-0.1-0.1-0.2-0.1-0.3l-0.1-0.1l1.5,0.3c0,0,0,0,0.1,0c0.1,0,0.2,0,0.3-0.1s0.1-0.2,0.1-0.3v-6.3  C-151.5,417.6-151.6,417.5-151.6,417.4z M-159.2,420.3h-12.6v-7.1l0,0c0.1-0.4,1.7-3.1,12.6-3.2V420.3z M-164.8,388.5  c0.5,0,0.8,0,1.1,0l2,9.7h-3.2L-164.8,388.5L-164.8,388.5z M-164.8,399h3.3l2.2,10.2c-2.2,0-4,0.1-5.5,0.3V399z M-167,388.7  c0.5-0.1,1-0.1,1.4-0.1v21c-0.5,0.1-1,0.2-1.4,0.3V388.7z M-193.2,408.7c0.1,0,4.8-0.9,8.7-5.9c3.7-4.8,8-9.1,10.7-11.8  c1.1-1.2,3.7-1.9,6-2.2V410c-1.1,0.3-2,0.6-2.7,0.9c-1,0.5-1.5,1-1.8,1.4h-41.4L-193.2,408.7z M-234.5,420.9L-234.5,420.9  L-234.5,420.9c0,2.3,0.3,3.7,0.6,4.5c-1-0.3-1.9-0.7-2.7-1.1c-1.6-0.7-2.8-1.4-3.6-2.1c-0.8-0.6-1.1-1.2-1.1-1.3  c0-0.1,0.3-0.7,1.1-1.4c1.2-1,3.4-2.2,6.3-3.2C-234.2,417.2-234.5,418.6-234.5,420.9L-234.5,420.9z M-223.1,427.6  c-3.8-0.4-7.1-1-9.8-1.9c-0.3-0.5-0.8-1.8-0.8-4.8l0,0l0,0c0-2.4,0.3-3.8,0.6-4.4c0.1-0.2,0.1-0.3,0.2-0.4c2.7-0.8,6-1.5,9.7-1.9  l5.1-0.9h45.5v7.1H-221v1.2h48.4v7.1h-45.5L-223.1,427.6z M-167.8,453c-2.3-0.3-4.9-1.1-6-2.2c-2.8-2.7-7-7-10.7-11.8  c-3.9-5-8.6-5.9-8.7-5.9l-20.4-3.7h41.4c0.3,0.4,0.8,0.9,1.8,1.4c0.7,0.3,1.5,0.7,2.7,0.9L-167.8,453L-167.8,453z M-165.6,453.2  c-0.4,0-0.9-0.1-1.4-0.1v-21.2c0.4,0.1,0.9,0.2,1.4,0.3V453.2z M-163.6,453.3c-0.3,0-0.7,0-1.1,0v-9.6h3.2L-163.6,453.3z   M-161.4,442.8h-3.3v-10.5c1.5,0.2,3.3,0.3,5.5,0.3L-161.4,442.8z M-170.1,430.1c-0.8-0.4-1.3-0.8-1.5-1.1c-0.1-0.1-0.2-0.3-0.2-0.3  c0-0.1,0-0.1,0-0.1v-7.1h12.6v10.3C-165.3,431.8-168.5,430.9-170.1,430.1z M-154,411.4v5.4l-4-0.7v-4L-154,411.4z M-153.9,417.6  l-4.1,0.7v-1.4L-153.9,417.6z M-154,430.4l-4-0.7v-4l4-0.7V430.4z M-153.6,424.1l-4.4,0.8v-1.5l4.4,0.8  C-153.6,424.1-153.6,424.1-153.6,424.1z M-152.3,423.5l-5.7-1v-3.4l5.7-1V423.5z"/>
</svg>