<svg data-name="Layer 1" viewBox="0 0 48 60" x="0px" xmlns="http://www.w3.org/2000/svg" y="0px">
    <title>music solid icons</title>
    <g data-name="Group">
        <g data-name="Group">
            <path fill="#5eff89" d="M46.68,7.52H1.32A1.32,1.32,0,0,0,0,8.83V39.17a1.32,1.32,0,0,0,1.32,1.31H7.66l1.57-7.69a.31.31,0,0,1,.3-.24H38.47a.31.31,0,0,1,.3.24l1.57,7.69h6.34A1.32,1.32,0,0,0,48,39.17V8.83A1.32,1.32,0,0,0,46.68,7.52Zm-.92,24H2.24v-1H45.76Zm0-3.85H2.24V11.89a2,2,0,0,1,1.94-2H43.82a2,2,0,0,1,1.94,2Z" data-name="Compound Path"/>
            <path fill="#5eff89" d="M9.78,33.16l-1.5,7.32H39.72l-1.5-7.32Zm2.68,6.72a1.22,1.22,0,1,1,1.22-1.22A1.22,1.22,0,0,1,12.46,39.88ZM24,36.08A1.09,1.09,0,1,1,25.09,35,1.09,1.09,0,0,1,24,36.08Zm11.54,3.8a1.22,1.22,0,1,1,1.22-1.22A1.22,1.22,0,0,1,35.54,39.88Z" data-name="Compound Path"/>
            <path fill="red" d="M34.21,18.34H13.79a4.24,4.24,0,0,0,0,8.47H34.21a4.24,4.24,0,0,0,0-8.47ZM15.7,24.82l-.43-1.06-1,.41.49,1.2a3,3,0,0,1-1,.15,2.93,2.93,0,0,1-1-.17l.48-1.18-1-.41-.42,1a2.86,2.86,0,0,1-1-1.71h1.57V22H10.9a3,3,0,0,1,.95-1.63l.42,1,1-.42-.48-1.18a2.93,2.93,0,0,1,1-.17,3,3,0,0,1,1,.16L14.25,21l1,.42.43-1.06a2.9,2.9,0,0,1,1,1.65h-1.6v1.1H16.7A2.94,2.94,0,0,1,15.7,24.82Zm14.44,1H17.86v-6.5H30.14Zm6-1-.42-1-1,.41.48,1.18a3,3,0,0,1-1,.17,2.83,2.83,0,0,1-.93-.15l.49-1.2-1-.41-.44,1.07a2.92,2.92,0,0,1-1-1.75h1.64V22H31.31a3,3,0,0,1,1-1.67l.44,1.08,1-.42-.49-1.2a2.83,2.83,0,0,1,.93-.15,2.77,2.77,0,0,1,1,.18L34.73,21l1,.42.42-1A3,3,0,0,1,37.1,22H35.56v1.1h1.55A2.94,2.94,0,0,1,36.17,24.78Z" data-name="Compound Path"/>
            <rect fill="#5eff89" data-name="Path" height="5.86" rx="0.85" ry="0.85" width="34.92" x="6.54" y="11.19"/>
            <path fill="#5eff89" d="M41.29,18.22l-1.57,4.35h1.63c.09-.27.15-.55.27-.82h.91l.27.82h1.65l-1.56-4.35Zm.57,2.51.19-.64.18.64Z" data-name="Compound Path"/>
        </g>
    </g>
    <text fill="#000000" font-family="'Helvetica Neue', Helvetica, Arial-Unicode, Arial, Sans-serif" font-size="5px" font-weight="bold" x="0" y="63">Created by tulpahn</text>
    <text fill="#000000" font-family="'Helvetica Neue', Helvetica, Arial-Unicode, Arial, Sans-serif" font-size="5px" font-weight="bold" x="0" y="68">from the Noun Project</text>
</svg>