<svg data-name="Layer 1" viewBox="0 0 48 60" x="0px" xmlns="http://www.w3.org/2000/svg" y="0px">
    <title>music solid icons</title>
    <g data-name="Group">
        <g data-name="Group">
            <path fill="#5eff89" d="M46.68,7.52H1.32A1.32,1.32,0,0,0,0,8.83V39.17a1.32,1.32,0,0,0,1.32,1.31H7.66l1.57-7.69a.31.31,0,0,1,.3-.24H38.47a.31.31,0,0,1,.3.24l1.57,7.69h6.34A1.32,1.32,0,0,0,48,39.17V8.83A1.32,1.32,0,0,0,46.68,7.52Zm-.92,24H2.24v-1H45.76Zm0-3.85H2.24V11.89a2,2,0,0,1,1.94-2H43.82a2,2,0,0,1,1.94,2Z" data-name="Compound Path"/>
            <path fill="#5eff89" d="M9.78,33.16l-1.5,7.32H39.72l-1.5-7.32Zm2.68,6.72a1.22,1.22,0,1,1,1.22-1.22A1.22,1.22,0,0,1,12.46,39.88ZM24,36.08A1.09,1.09,0,1,1,25.09,35,1.09,1.09,0,0,1,24,36.08Zm11.54,3.8a1.22,1.22,0,1,1,1.22-1.22A1.22,1.22,0,0,1,35.54,39.88Z" data-name="Compound Path"/>
            <rect fill="#5eff89" data-name="Path" height="5.86" rx="0.85" ry="0.85" width="34.92" x="6.54" y="11.19"/>
            <path fill="#5eff89" d="M41.29,18.22l-1.57,4.35h1.63c.09-.27.15-.55.27-.82h.91l.27.82h1.65l-1.56-4.35Zm.57,2.51.19-.64.18.64Z" data-name="Compound Path"/>
        </g>
    </g>
    <!-- <text fill="#000000" font-family="'Helvetica Neue', Helvetica, Arial-Unicode, Arial, Sans-serif" font-size="5px" font-weight="bold" x="0" y="63">Created by tulpahn</text> -->
    <!-- <text fill="#000000" font-family="'Helvetica Neue', Helvetica, Arial-Unicode, Arial, Sans-serif" font-size="5px" font-weight="bold" x="0" y="68">from the Noun Project</text> -->
</svg>